<?xml version="1.0" encoding="UTF-8"?>
<svg id="_Слой_2" data-name="Слой 2" xmlns="http://www.w3.org/2000/svg" viewBox="0 0 355.86 87.4">
  <defs>
    <style>
      .cls-1 {
        fill: #bf2f21;
      }

      .cls-2 {
        fill: #fff;
        fill-rule: evenodd;
      }
    </style>
  </defs>
  <g id="_1" data-name="???? 1">
    <g>
      <rect class="cls-1" width="355.86" height="87.4" rx="13.43" ry="13.43"/>
      <path class="cls-2" d="m80.14,52.12v-15.72h-10.04v13.91c0,2.38.39,4.51,1.18,6.4s2.04,3.5,3.75,4.82c1.72,1.33,3.94,2.35,6.68,3.07,2.74.72,6.05,1.08,9.95,1.08,7.04,0,12.44-1.37,16.19-4.12,3.75-2.75,5.63-6.5,5.63-11.25v-13.91h-10.04v15.72c0,1.95-.29,3.58-.87,4.91-.58,1.32-1.41,2.38-2.49,3.16-1.08.78-2.37,1.32-3.89,1.64-1.51.31-3.17.45-4.98.41-1.8.04-3.4-.11-4.8-.44-1.4-.33-2.56-.89-3.49-1.67-.93-.78-1.63-1.82-2.09-3.13-.47-1.3-.7-2.93-.7-4.88h0Zm66.43-15.66c-8.32,0-14.68,1.37-19.07,4.12-4.39,2.75-6.59,6.5-6.59,11.25v13.85h10.04v-16.19c0-1.95.45-3.57,1.35-4.88.9-1.31,2.08-2.35,3.53-3.13,1.46-.78,3.08-1.33,4.89-1.67,1.8-.33,3.61-.48,5.41-.44.7,0,1.42,0,2.18.03.76.02,1.48.07,2.18.15v-3.04c-.64-.04-1.31-.06-2.01-.06h-1.92Zm42.07,13.79v15.37h10.04v-13.56c0-2.38-.39-4.51-1.18-6.4-.79-1.89-2.04-3.5-3.75-4.82-1.72-1.32-3.94-2.35-6.68-3.07-2.73-.72-6.05-1.08-9.95-1.08-7.04,0-12.44,1.37-16.19,4.12-3.75,2.75-5.63,6.5-5.63,11.25v13.56h10.04v-15.37c0-1.95.29-3.58.87-4.91.58-1.32,1.41-2.38,2.49-3.16,1.08-.78,2.37-1.32,3.88-1.64,1.51-.31,3.17-.45,4.98-.41,1.8-.04,3.41.11,4.8.44,1.4.33,2.56.89,3.49,1.66.93.78,1.63,1.82,2.09,3.13.47,1.31.7,2.93.7,4.88h0Zm114.82-13.73c-4.01,0-7.45.41-10.3,1.23-2.85.82-5.18,1.9-6.98,3.24-1.8,1.34-3.14,2.89-4.01,4.65-.87,1.75-1.34,3.58-1.4,5.49.12,1.95.61,3.8,1.48,5.55.87,1.75,2.21,3.3,4.02,4.65,1.8,1.34,4.12,2.41,6.94,3.18,2.82.78,6.24,1.17,10.26,1.17s7.11-.39,9.82-1.17c2.7-.78,4.93-1.82,6.68-3.13,1.75-1.31,3.04-2.84,3.88-4.62.84-1.77,1.32-3.65,1.44-5.64-.12-1.91-.61-3.74-1.48-5.49-.87-1.75-2.18-3.3-3.93-4.65-1.74-1.34-3.96-2.42-6.63-3.24-2.68-.82-5.94-1.23-9.78-1.23h0Zm-12.66,15.6v-2.05c0-1.95.29-3.57.87-4.88.58-1.31,1.41-2.35,2.49-3.13,1.08-.78,2.37-1.33,3.88-1.67,1.51-.33,3.17-.48,4.98-.44,1.8-.04,3.46.1,4.98.41,1.51.31,2.81.86,3.88,1.64,1.08.78,1.91,1.83,2.49,3.16.58,1.32.87,2.96.87,4.91v2.05c0,1.95-.29,3.58-.87,4.91-.58,1.32-1.41,2.38-2.49,3.16-1.08.78-2.37,1.32-3.88,1.64-1.51.31-3.17.45-4.98.41-1.8.04-3.46-.11-4.98-.44-1.51-.33-2.81-.89-3.88-1.67-1.08-.78-1.91-1.82-2.49-3.13-.58-1.3-.87-2.93-.87-4.88h0Zm-71.84-17.92h-10.75v31.41h10.75v-31.41h0Zm-12.52-10.7c0,1.29.67,2.4,2.01,3.32,1.34.92,2.97,1.38,4.91,1.38.81,0,1.64-.13,2.48-.38.84-.25,1.61-.59,2.29-1.03.68-.44,1.23-.94,1.63-1.5.41-.56.61-1.16.61-1.78,0-1.29-.68-2.4-2.06-3.32-1.37-.92-3.02-1.38-4.95-1.38s-3.57.46-4.91,1.38c-1.34.92-2.01,2.02-2.01,3.32h0Zm67.85,35.52c-2.32,1.04-4.73,1.83-7.22,2.38-2.49.55-5.02.82-7.58.82-3.53,0-6.73-.39-9.61-1.16-2.88-.78-5.33-1.87-7.36-3.28-2.03-1.41-3.59-3.08-4.68-5.02-1.09-1.94-1.63-4.09-1.63-6.46,0-2.04.45-3.94,1.34-5.7.89-1.76,2.18-3.29,3.84-4.56,1.67-1.28,3.71-2.28,6.13-3.01,2.42-.73,5.15-1.09,8.2-1.09,2.66.1,4.93.28,6.82.53,1.89.26,3.52.56,4.89.9,1.38.34,2.6.7,3.66,1.09,1.06.39,2.15.74,3.26,1.07.15-.62.3-1.33.47-2.14.17-.81.33-1.46.47-1.94-3.34-.78-6.7-1.37-10.08-1.77-3.38-.4-6.6-.61-9.64-.61-3.87,0-7.52.41-10.95,1.24-3.43.82-6.44,2.02-9.03,3.59-2.59,1.57-4.64,3.49-6.16,5.75-1.52,2.27-2.28,4.84-2.28,7.72s.79,5.56,2.36,7.84c1.57,2.28,3.71,4.2,6.42,5.75,2.71,1.55,5.87,2.73,9.5,3.52,3.63.79,7.49,1.19,11.6,1.19,1.16,0,2.48-.07,3.95-.22,1.47-.15,2.97-.35,4.5-.61,1.52-.26,3.02-.57,4.49-.92,1.48-.36,2.79-.76,3.95-1.21l.36-3.69Z"/>
      <path class="cls-2" d="m325.44,25.17H60.55c-7.97.05-20.09-.32-20.05,10.4,0,2.67.01,5.66,0,7.9l23.83.03v2.66l-23.83-.02v19.47h-10.1v-28.05c.1-15.97,18.35-15.8,30.18-15.78h264.85v3.39Z"/>
    </g>
  </g>
</svg>