<svg width="784" height="568" viewBox="0 0 784 568" fill="none" xmlns="http://www.w3.org/2000/svg">
<mask id="path-1-inside-1_12_33" fill="white">
<path d="M0 0H684C739.228 0 784 44.7715 784 100V468C784 523.228 739.228 568 684 568H0V0Z"/>
</mask>
<path d="M0 -3H684C740.885 -3 787 43.1147 787 100H781C781 46.4284 737.572 3 684 3H0V-3ZM787 468C787 524.885 740.885 571 684 571H0V565H684C737.572 565 781 521.572 781 468H787ZM0 568V0V568ZM684 -3C740.885 -3 787 43.1147 787 100V468C787 524.885 740.885 571 684 571V565C737.572 565 781 521.572 781 468V100C781 46.4284 737.572 3 684 3V-3Z" fill="white" mask="url(#path-1-inside-1_12_33)"/>
</svg>
