<?xml version="1.0" encoding="UTF-8"?>
<svg id="_Слой_2" data-name="Слой 2" xmlns="http://www.w3.org/2000/svg" viewBox="0 0 42.7 42.68">
  <defs>
    <style>
      .cls-1 {
        fill: #fff;
        fill-rule: evenodd;
      }
    </style>
  </defs>
  <g id="_1" data-name="???? 1">
    <g>
      <path class="cls-1" d="m32.81,7.42h.03c1.41,0,2.55,1.15,2.53,2.57-.01,1.41-1.17,2.55-2.59,2.55-1.42-.02-2.54-1.17-2.53-2.57.01-1.41,1.15-2.55,2.56-2.55Z"/>
      <path class="cls-1" d="m38.33,32.04c.61-3.75.61-17.45.26-20.96-.38-3.75-2.68-6.22-6.39-6.8-1.84-.28-6.27-.4-10.67-.4s-8.48.11-10.34.32c-3.72.43-6.23,2.73-6.82,6.43-.61,3.92-.6,18.6-.15,21.55.47,3.07,2.21,5.18,5.27,6.03,1.66.46,6.62.63,11.48.63,4.48,0,8.87-.14,10.53-.32,3.76-.41,6.24-2.73,6.84-6.46h0Zm4.11-21.32c.32,3.36.52,19.23-.47,22.95-1.32,4.87-4.5,7.75-9.42,8.54-1.84.3-6.81.48-11.78.48s-10.16-.19-11.86-.63c-4.84-1.25-7.73-4.41-8.5-9.31C-.16,29.14-.22,12.41.81,8.78,2.17,4.05,5.33,1.27,10.12.48c2.17-.36,6.41-.48,10.7-.48,3.99,0,8.01.11,10.42.24,2.93.15,5.61,1.1,7.79,3.19,2.08,1.99,3.14,4.47,3.41,7.29Z"/>
      <path class="cls-1" d="m21.28,28.42c3.88,0,7.07-3.12,7.14-7.01.06-3.93-3.05-7.11-6.96-7.15h-.06c-3.88,0-7.07,3.12-7.14,7.01-.06,3.91,3.05,7.11,6.96,7.15h.06Zm.16-18.02c6.03,0,10.9,4.9,10.85,10.95-.05,6.03-4.99,10.93-11.04,10.93s-10.9-4.9-10.85-10.95c.05-6.05,4.99-10.95,11.04-10.94Z"/>
    </g>
  </g>
</svg>