<?xml version="1.0" encoding="UTF-8"?>
<svg id="_Слой_2" data-name="Слой 2" xmlns="http://www.w3.org/2000/svg" viewBox="0 0 42.7 42.68">
  <defs>
    <style>
      .cls-1 {
        fill: #fff;
        fill-rule: evenodd;
      }
    </style>
  </defs>
  <g id="_1" data-name="???? 1">
    <g>
      <path class="cls-1" d="m25.61,6.4c.95,0,1.9.05,2.84.09.62.03,1.23.11,1.81.18l-.04,5.7h-.45c-.63,0-1.25,0-1.88,0-.47,0-.94,0-1.41.02-1.51.05-2.62.62-2.7,2.5-.05,1.36-.08,4.36-.08,4.52.08,0,1.57,0,3.07,0,.75,0,1.48,0,2,0h1.22c-.31,2.19-.59,4.29-.89,6.4h-5.4l-.12,15.99h-6.63l.12-16.01h-5.42l.05-6.37h5.45v-.48c.01-1.28,0-2.57.05-3.85.02-.81.06-1.64.21-2.44.37-1.95,1.27-3.58,2.9-4.76,1.43-1.02,3.06-1.45,4.78-1.48.18,0,.35,0,.53,0Z"/>
      <path class="cls-1" d="m38.33,32.04c.61-3.75.61-17.45.26-20.96-.38-3.75-2.68-6.22-6.39-6.8-1.84-.28-6.27-.4-10.67-.4s-8.48.11-10.34.32c-3.72.43-6.23,2.73-6.82,6.43-.61,3.92-.6,18.6-.15,21.55.47,3.07,2.21,5.18,5.27,6.03,1.66.46,6.62.63,11.48.63,4.48,0,8.87-.14,10.53-.32,3.76-.41,6.24-2.73,6.84-6.46h0Zm4.11-21.32c.32,3.36.52,19.23-.47,22.95-1.32,4.87-4.5,7.75-9.42,8.54-1.84.3-6.81.48-11.78.48s-10.16-.19-11.86-.63c-4.84-1.25-7.73-4.41-8.5-9.31C-.16,29.14-.22,12.41.81,8.78,2.17,4.05,5.33,1.27,10.12.48c2.17-.36,6.41-.48,10.7-.48,3.99,0,8.01.11,10.42.24,2.93.15,5.61,1.1,7.79,3.19,2.08,1.99,3.14,4.48,3.41,7.29Z"/>
    </g>
  </g>
</svg>