<svg width="45" height="34" viewBox="0 0 45 34" fill="none" xmlns="http://www.w3.org/2000/svg">
<g clip-path="url(#clip0_21_92)">
<path d="M45.0009 0H0V34.0007H45.0009V0Z" fill="#000066"/>
<path d="M0 0V3.80139L39.9698 34.0008H45.0009V30.1995L5.0311 0.000113336L0 0ZM45.0009 0V3.80128L5.0311 34.0007H0V30.1994L39.9698 0H45.0009Z" fill="white"/>
<path d="M18.7504 0V34.0007H26.2505V0H18.7504ZM0 11.3336V22.6671H45.0009V11.3336H0Z" fill="white"/>
<path d="M0 13.6003V20.4004H45.0009V13.6003H0ZM20.2504 0V34.0007H24.7505V0H20.2504Z" fill="#CC0000"/>
<path d="M0 34.0007L15.0003 22.6671H18.3544L3.35407 34.0007H0ZM0 0L15.0003 11.3336H11.6462L0 2.5343L0 0ZM26.6465 11.3336L41.6468 0H45.0009L30.0006 11.3336H26.6465ZM45.0009 34.0007L30.0006 22.6671H33.3547L45.0009 31.4665V34.0007Z" fill="#CC0000"/>
</g>
<defs>
<clipPath id="clip0_21_92">
<rect width="45" height="34" fill="white"/>
</clipPath>
</defs>
</svg>
